<mxfile host="app.diagrams.net" modified="2024-03-19T03:42:02.177Z" agent="Mozilla/5.0 (Macintosh; Intel Mac OS X 10_15_7) AppleWebKit/605.1.15 (KHTML, like Gecko) Version/17.4 Safari/605.1.15" etag="ngqUwpYLnamKuEIS8B7V" version="21.7.5" type="github">
  <diagram name="Draft-20240319" id="MdQHABWb_eDRW7owFdey">
    <mxGraphModel dx="1186" dy="800" grid="1" gridSize="10" guides="1" tooltips="1" connect="1" arrows="1" fold="1" page="1" pageScale="1" pageWidth="827" pageHeight="1169" math="0" shadow="0">
      <root>
        <mxCell id="0" />
        <mxCell id="1" parent="0" />
        <mxCell id="K9BXF867hBJb0RtPdVWy-8" style="edgeStyle=orthogonalEdgeStyle;rounded=0;orthogonalLoop=1;jettySize=auto;html=1;exitX=1;exitY=0.5;exitDx=0;exitDy=0;entryX=0;entryY=0.5;entryDx=0;entryDy=0;endArrow=ERzeroToMany;endFill=0;startArrow=ERmandOne;startFill=0;" edge="1" parent="1" source="K9BXF867hBJb0RtPdVWy-1" target="K9BXF867hBJb0RtPdVWy-3">
          <mxGeometry relative="1" as="geometry">
            <mxPoint x="474" y="660" as="targetPoint" />
          </mxGeometry>
        </mxCell>
        <mxCell id="K9BXF867hBJb0RtPdVWy-1" value="Department" style="rounded=0;whiteSpace=wrap;html=1;" vertex="1" parent="1">
          <mxGeometry x="214" y="630" width="120" height="60" as="geometry" />
        </mxCell>
        <mxCell id="K9BXF867hBJb0RtPdVWy-5" style="edgeStyle=orthogonalEdgeStyle;rounded=0;orthogonalLoop=1;jettySize=auto;html=1;exitX=0.5;exitY=1;exitDx=0;exitDy=0;endArrow=ERmandOne;endFill=0;startArrow=ERmany;startFill=0;" edge="1" parent="1" source="K9BXF867hBJb0RtPdVWy-2" target="K9BXF867hBJb0RtPdVWy-1">
          <mxGeometry relative="1" as="geometry" />
        </mxCell>
        <mxCell id="K9BXF867hBJb0RtPdVWy-6" style="edgeStyle=orthogonalEdgeStyle;rounded=0;orthogonalLoop=1;jettySize=auto;html=1;exitX=1;exitY=0.5;exitDx=0;exitDy=0;endArrow=none;endFill=0;" edge="1" parent="1" source="K9BXF867hBJb0RtPdVWy-2" target="K9BXF867hBJb0RtPdVWy-4">
          <mxGeometry relative="1" as="geometry" />
        </mxCell>
        <mxCell id="K9BXF867hBJb0RtPdVWy-15" value="Considering..." style="edgeLabel;html=1;align=center;verticalAlign=middle;resizable=0;points=[];" vertex="1" connectable="0" parent="K9BXF867hBJb0RtPdVWy-6">
          <mxGeometry x="-0.3125" relative="1" as="geometry">
            <mxPoint x="21" as="offset" />
          </mxGeometry>
        </mxCell>
        <mxCell id="K9BXF867hBJb0RtPdVWy-2" value="User" style="rounded=0;whiteSpace=wrap;html=1;" vertex="1" parent="1">
          <mxGeometry x="214" y="350" width="120" height="60" as="geometry" />
        </mxCell>
        <mxCell id="K9BXF867hBJb0RtPdVWy-13" style="edgeStyle=orthogonalEdgeStyle;rounded=0;orthogonalLoop=1;jettySize=auto;html=1;exitX=0.5;exitY=0;exitDx=0;exitDy=0;endArrow=ERoneToMany;endFill=0;startArrow=ERmandOne;startFill=0;" edge="1" parent="1" source="K9BXF867hBJb0RtPdVWy-3" target="K9BXF867hBJb0RtPdVWy-4">
          <mxGeometry relative="1" as="geometry" />
        </mxCell>
        <mxCell id="K9BXF867hBJb0RtPdVWy-3" value="Project" style="rounded=0;whiteSpace=wrap;html=1;" vertex="1" parent="1">
          <mxGeometry x="494" y="630" width="120" height="60" as="geometry" />
        </mxCell>
        <mxCell id="K9BXF867hBJb0RtPdVWy-4" value="Scheduler" style="rounded=0;whiteSpace=wrap;html=1;" vertex="1" parent="1">
          <mxGeometry x="494" y="350" width="120" height="60" as="geometry" />
        </mxCell>
        <mxCell id="K9BXF867hBJb0RtPdVWy-10" style="edgeStyle=orthogonalEdgeStyle;rounded=0;orthogonalLoop=1;jettySize=auto;html=1;exitX=1;exitY=0.5;exitDx=0;exitDy=0;entryX=0;entryY=0.5;entryDx=0;entryDy=0;" edge="1" parent="1" source="K9BXF867hBJb0RtPdVWy-9" target="K9BXF867hBJb0RtPdVWy-2">
          <mxGeometry relative="1" as="geometry" />
        </mxCell>
        <mxCell id="K9BXF867hBJb0RtPdVWy-9" value="HR/Deparment&amp;nbsp;&lt;br&gt;Manager" style="rounded=0;whiteSpace=wrap;html=1;" vertex="1" parent="1">
          <mxGeometry x="20" y="350" width="120" height="60" as="geometry" />
        </mxCell>
        <mxCell id="K9BXF867hBJb0RtPdVWy-12" style="rounded=0;orthogonalLoop=1;jettySize=auto;html=1;exitX=1;exitY=0.5;exitDx=0;exitDy=0;entryX=0;entryY=0;entryDx=0;entryDy=0;" edge="1" parent="1" source="K9BXF867hBJb0RtPdVWy-11" target="K9BXF867hBJb0RtPdVWy-2">
          <mxGeometry relative="1" as="geometry" />
        </mxCell>
        <mxCell id="K9BXF867hBJb0RtPdVWy-11" value="Candidate" style="rounded=0;whiteSpace=wrap;html=1;" vertex="1" parent="1">
          <mxGeometry x="20" y="230" width="120" height="60" as="geometry" />
        </mxCell>
      </root>
    </mxGraphModel>
  </diagram>
</mxfile>
